<mxfile><diagram id="Dx4ijdz9q77wWzMe3Q-4" name="第 1 页"><mxGraphModel dx="593" dy="553" grid="1" gridSize="10" guides="0" tooltips="1" connect="1" arrows="1" fold="1" page="1" pageScale="1" pageWidth="2339" pageHeight="3300" math="1" shadow="0"><root><mxCell id="0"/><mxCell id="1" parent="0"/><mxCell id="41" value="" style="edgeStyle=none;html=1;" edge="1" parent="1" source="15"><mxGeometry relative="1" as="geometry"><mxPoint x="380" y="289.01351351351354" as="targetPoint"/></mxGeometry></mxCell><mxCell id="15" value="" style="shape=table;html=1;whiteSpace=wrap;startSize=0;container=1;collapsible=0;childLayout=tableLayout;strokeColor=default;rowLines=1;columnLines=1;fixedRows=0;swimlaneHead=0;swimlaneBody=1;left=0;top=0;strokeWidth=2;perimeterSpacing=0;" vertex="1" parent="1"><mxGeometry x="90" y="180" width="623" height="680" as="geometry"/></mxCell><mxCell id="57" style="shape=tableRow;horizontal=0;startSize=0;swimlaneHead=0;swimlaneBody=0;top=0;left=0;bottom=0;right=0;collapsible=0;dropTarget=0;fillColor=none;points=[[0,0.5],[1,0.5]];portConstraint=eastwest;strokeColor=none;" vertex="1" parent="15"><mxGeometry width="623" height="80" as="geometry"/></mxCell><mxCell id="58" style="shape=partialRectangle;html=1;whiteSpace=wrap;connectable=0;fillColor=none;top=0;left=0;bottom=0;right=0;overflow=hidden;" vertex="1" parent="57"><mxGeometry width="94" height="80" as="geometry"><mxRectangle width="94" height="80" as="alternateBounds"/></mxGeometry></mxCell><mxCell id="59" value="体重指数" style="shape=partialRectangle;html=1;whiteSpace=wrap;connectable=0;fillColor=none;top=0;left=0;bottom=0;right=0;overflow=hidden;" vertex="1" parent="57"><mxGeometry x="94" width="55" height="80" as="geometry"><mxRectangle width="55" height="80" as="alternateBounds"/></mxGeometry></mxCell><mxCell id="60" value="肺活量" style="shape=partialRectangle;html=1;whiteSpace=wrap;connectable=0;fillColor=none;top=0;left=0;bottom=0;right=0;overflow=hidden;" vertex="1" parent="57"><mxGeometry x="149" width="54" height="80" as="geometry"><mxRectangle width="54" height="80" as="alternateBounds"/></mxGeometry></mxCell><mxCell id="61" value="50米跑" style="shape=partialRectangle;html=1;whiteSpace=wrap;connectable=0;fillColor=none;top=0;left=0;bottom=0;right=0;overflow=hidden;" vertex="1" parent="57"><mxGeometry x="203" width="45" height="80" as="geometry"><mxRectangle width="45" height="80" as="alternateBounds"/></mxGeometry></mxCell><mxCell id="62" value="坐位体前屈" style="shape=partialRectangle;html=1;whiteSpace=wrap;connectable=0;fillColor=none;top=0;left=0;bottom=0;right=0;overflow=hidden;" vertex="1" parent="57"><mxGeometry x="248" width="53" height="80" as="geometry"><mxRectangle width="53" height="80" as="alternateBounds"/></mxGeometry></mxCell><mxCell id="67" value="一分钟跳绳" style="shape=partialRectangle;html=1;whiteSpace=wrap;connectable=0;fillColor=none;top=0;left=0;bottom=0;right=0;overflow=hidden;" vertex="1" parent="57"><mxGeometry x="301" width="54" height="80" as="geometry"><mxRectangle width="54" height="80" as="alternateBounds"/></mxGeometry></mxCell><mxCell id="72" value="一分钟仰卧起坐" style="shape=partialRectangle;html=1;whiteSpace=wrap;connectable=0;fillColor=none;top=0;left=0;bottom=0;right=0;overflow=hidden;" vertex="1" parent="57"><mxGeometry x="355" width="53" height="80" as="geometry"><mxRectangle width="53" height="80" as="alternateBounds"/></mxGeometry></mxCell><mxCell id="77" value="50米*8往返跑" style="shape=partialRectangle;html=1;whiteSpace=wrap;connectable=0;fillColor=none;top=0;left=0;bottom=0;right=0;overflow=hidden;" vertex="1" parent="57"><mxGeometry x="408" width="53" height="80" as="geometry"><mxRectangle width="53" height="80" as="alternateBounds"/></mxGeometry></mxCell><mxCell id="82" value="立定跳远" style="shape=partialRectangle;html=1;whiteSpace=wrap;connectable=0;fillColor=none;top=0;left=0;bottom=0;right=0;overflow=hidden;" vertex="1" parent="57"><mxGeometry x="461" width="54" height="80" as="geometry"><mxRectangle width="54" height="80" as="alternateBounds"/></mxGeometry></mxCell><mxCell id="87" value="引体向上（男）/&lt;br&gt;一分钟仰卧起坐" style="shape=partialRectangle;html=1;whiteSpace=wrap;connectable=0;fillColor=none;top=0;left=0;bottom=0;right=0;overflow=hidden;" vertex="1" parent="57"><mxGeometry x="515" width="54" height="80" as="geometry"><mxRectangle width="54" height="80" as="alternateBounds"/></mxGeometry></mxCell><mxCell id="92" value="1000米（男）/&lt;br&gt;800米跑（女）" style="shape=partialRectangle;html=1;whiteSpace=wrap;connectable=0;fillColor=none;top=0;left=0;bottom=0;right=0;overflow=hidden;" vertex="1" parent="57"><mxGeometry x="569" width="54" height="80" as="geometry"><mxRectangle width="54" height="80" as="alternateBounds"/></mxGeometry></mxCell><mxCell id="16" value="" style="shape=tableRow;horizontal=0;startSize=0;swimlaneHead=0;swimlaneBody=0;top=0;left=0;bottom=0;right=0;collapsible=0;dropTarget=0;fillColor=none;points=[[0,0.5],[1,0.5]];portConstraint=eastwest;strokeColor=none;" vertex="1" parent="15"><mxGeometry y="80" width="623" height="50" as="geometry"/></mxCell><mxCell id="17" value="&lt;font style=&quot;font-size: 19px;&quot;&gt;小学一年级&lt;/font&gt;" style="shape=partialRectangle;html=1;whiteSpace=wrap;connectable=0;fillColor=none;top=0;left=0;bottom=0;right=0;overflow=hidden;" vertex="1" parent="16"><mxGeometry width="94" height="50" as="geometry"><mxRectangle width="94" height="50" as="alternateBounds"/></mxGeometry></mxCell><mxCell id="18" value="&lt;font style=&quot;font-size: 12px;&quot;&gt;T&lt;/font&gt;" style="shape=partialRectangle;html=1;whiteSpace=wrap;connectable=0;fillColor=none;top=0;left=0;bottom=0;right=0;overflow=hidden;" vertex="1" parent="16"><mxGeometry x="94" width="55" height="50" as="geometry"><mxRectangle width="55" height="50" as="alternateBounds"/></mxGeometry></mxCell><mxCell id="19" value="T" style="shape=partialRectangle;html=1;whiteSpace=wrap;connectable=0;fillColor=none;top=0;left=0;bottom=0;right=0;overflow=hidden;" vertex="1" parent="16"><mxGeometry x="149" width="54" height="50" as="geometry"><mxRectangle width="54" height="50" as="alternateBounds"/></mxGeometry></mxCell><mxCell id="52" value="T" style="shape=partialRectangle;html=1;whiteSpace=wrap;connectable=0;fillColor=none;top=0;left=0;bottom=0;right=0;overflow=hidden;" vertex="1" parent="16"><mxGeometry x="203" width="45" height="50" as="geometry"><mxRectangle width="45" height="50" as="alternateBounds"/></mxGeometry></mxCell><mxCell id="63" value="T" style="shape=partialRectangle;html=1;whiteSpace=wrap;connectable=0;fillColor=none;top=0;left=0;bottom=0;right=0;overflow=hidden;" vertex="1" parent="16"><mxGeometry x="248" width="53" height="50" as="geometry"><mxRectangle width="53" height="50" as="alternateBounds"/></mxGeometry></mxCell><mxCell id="68" value="T" style="shape=partialRectangle;html=1;whiteSpace=wrap;connectable=0;fillColor=none;top=0;left=0;bottom=0;right=0;overflow=hidden;" vertex="1" parent="16"><mxGeometry x="301" width="54" height="50" as="geometry"><mxRectangle width="54" height="50" as="alternateBounds"/></mxGeometry></mxCell><mxCell id="73" style="shape=partialRectangle;html=1;whiteSpace=wrap;connectable=0;fillColor=none;top=0;left=0;bottom=0;right=0;overflow=hidden;" vertex="1" parent="16"><mxGeometry x="355" width="53" height="50" as="geometry"><mxRectangle width="53" height="50" as="alternateBounds"/></mxGeometry></mxCell><mxCell id="78" style="shape=partialRectangle;html=1;whiteSpace=wrap;connectable=0;fillColor=none;top=0;left=0;bottom=0;right=0;overflow=hidden;" vertex="1" parent="16"><mxGeometry x="408" width="53" height="50" as="geometry"><mxRectangle width="53" height="50" as="alternateBounds"/></mxGeometry></mxCell><mxCell id="83" style="shape=partialRectangle;html=1;whiteSpace=wrap;connectable=0;fillColor=none;top=0;left=0;bottom=0;right=0;overflow=hidden;" vertex="1" parent="16"><mxGeometry x="461" width="54" height="50" as="geometry"><mxRectangle width="54" height="50" as="alternateBounds"/></mxGeometry></mxCell><mxCell id="88" style="shape=partialRectangle;html=1;whiteSpace=wrap;connectable=0;fillColor=none;top=0;left=0;bottom=0;right=0;overflow=hidden;" vertex="1" parent="16"><mxGeometry x="515" width="54" height="50" as="geometry"><mxRectangle width="54" height="50" as="alternateBounds"/></mxGeometry></mxCell><mxCell id="93" style="shape=partialRectangle;html=1;whiteSpace=wrap;connectable=0;fillColor=none;top=0;left=0;bottom=0;right=0;overflow=hidden;" vertex="1" parent="16"><mxGeometry x="569" width="54" height="50" as="geometry"><mxRectangle width="54" height="50" as="alternateBounds"/></mxGeometry></mxCell><mxCell id="24" value="" style="shape=tableRow;horizontal=0;startSize=0;swimlaneHead=0;swimlaneBody=0;top=0;left=0;bottom=0;right=0;collapsible=0;dropTarget=0;fillColor=none;points=[[0,0.5],[1,0.5]];portConstraint=eastwest;" vertex="1" parent="15"><mxGeometry y="130" width="623" height="60" as="geometry"/></mxCell><mxCell id="25" value="&lt;span style=&quot;font-size: 18px;&quot;&gt;小学二年级&lt;/span&gt;" style="shape=partialRectangle;html=1;whiteSpace=wrap;connectable=0;fillColor=none;top=0;left=0;bottom=0;right=0;overflow=hidden;" vertex="1" parent="24"><mxGeometry width="94" height="60" as="geometry"><mxRectangle width="94" height="60" as="alternateBounds"/></mxGeometry></mxCell><mxCell id="26" value="T" style="shape=partialRectangle;html=1;whiteSpace=wrap;connectable=0;fillColor=none;top=0;left=0;bottom=0;right=0;overflow=hidden;" vertex="1" parent="24"><mxGeometry x="94" width="55" height="60" as="geometry"><mxRectangle width="55" height="60" as="alternateBounds"/></mxGeometry></mxCell><mxCell id="27" value="T" style="shape=partialRectangle;html=1;whiteSpace=wrap;connectable=0;fillColor=none;top=0;left=0;bottom=0;right=0;overflow=hidden;pointerEvents=1;" vertex="1" parent="24"><mxGeometry x="149" width="54" height="60" as="geometry"><mxRectangle width="54" height="60" as="alternateBounds"/></mxGeometry></mxCell><mxCell id="53" value="T" style="shape=partialRectangle;html=1;whiteSpace=wrap;connectable=0;fillColor=none;top=0;left=0;bottom=0;right=0;overflow=hidden;pointerEvents=1;" vertex="1" parent="24"><mxGeometry x="203" width="45" height="60" as="geometry"><mxRectangle width="45" height="60" as="alternateBounds"/></mxGeometry></mxCell><mxCell id="64" value="T" style="shape=partialRectangle;html=1;whiteSpace=wrap;connectable=0;fillColor=none;top=0;left=0;bottom=0;right=0;overflow=hidden;pointerEvents=1;" vertex="1" parent="24"><mxGeometry x="248" width="53" height="60" as="geometry"><mxRectangle width="53" height="60" as="alternateBounds"/></mxGeometry></mxCell><mxCell id="69" value="T" style="shape=partialRectangle;html=1;whiteSpace=wrap;connectable=0;fillColor=none;top=0;left=0;bottom=0;right=0;overflow=hidden;pointerEvents=1;" vertex="1" parent="24"><mxGeometry x="301" width="54" height="60" as="geometry"><mxRectangle width="54" height="60" as="alternateBounds"/></mxGeometry></mxCell><mxCell id="74" style="shape=partialRectangle;html=1;whiteSpace=wrap;connectable=0;fillColor=none;top=0;left=0;bottom=0;right=0;overflow=hidden;pointerEvents=1;" vertex="1" parent="24"><mxGeometry x="355" width="53" height="60" as="geometry"><mxRectangle width="53" height="60" as="alternateBounds"/></mxGeometry></mxCell><mxCell id="79" style="shape=partialRectangle;html=1;whiteSpace=wrap;connectable=0;fillColor=none;top=0;left=0;bottom=0;right=0;overflow=hidden;pointerEvents=1;" vertex="1" parent="24"><mxGeometry x="408" width="53" height="60" as="geometry"><mxRectangle width="53" height="60" as="alternateBounds"/></mxGeometry></mxCell><mxCell id="84" style="shape=partialRectangle;html=1;whiteSpace=wrap;connectable=0;fillColor=none;top=0;left=0;bottom=0;right=0;overflow=hidden;pointerEvents=1;" vertex="1" parent="24"><mxGeometry x="461" width="54" height="60" as="geometry"><mxRectangle width="54" height="60" as="alternateBounds"/></mxGeometry></mxCell><mxCell id="89" style="shape=partialRectangle;html=1;whiteSpace=wrap;connectable=0;fillColor=none;top=0;left=0;bottom=0;right=0;overflow=hidden;pointerEvents=1;" vertex="1" parent="24"><mxGeometry x="515" width="54" height="60" as="geometry"><mxRectangle width="54" height="60" as="alternateBounds"/></mxGeometry></mxCell><mxCell id="94" style="shape=partialRectangle;html=1;whiteSpace=wrap;connectable=0;fillColor=none;top=0;left=0;bottom=0;right=0;overflow=hidden;pointerEvents=1;" vertex="1" parent="24"><mxGeometry x="569" width="54" height="60" as="geometry"><mxRectangle width="54" height="60" as="alternateBounds"/></mxGeometry></mxCell><mxCell id="20" value="" style="shape=tableRow;horizontal=0;startSize=0;swimlaneHead=0;swimlaneBody=0;top=0;left=0;bottom=0;right=0;collapsible=0;dropTarget=0;fillColor=none;points=[[0,0.5],[1,0.5]];portConstraint=eastwest;" vertex="1" parent="15"><mxGeometry y="190" width="623" height="50" as="geometry"/></mxCell><mxCell id="21" value="&lt;span style=&quot;font-size: 18px;&quot;&gt;小学三年级&lt;/span&gt;" style="shape=partialRectangle;html=1;whiteSpace=wrap;connectable=0;fillColor=none;top=0;left=0;bottom=0;right=0;overflow=hidden;" vertex="1" parent="20"><mxGeometry width="94" height="50" as="geometry"><mxRectangle width="94" height="50" as="alternateBounds"/></mxGeometry></mxCell><mxCell id="22" value="T" style="shape=partialRectangle;html=1;whiteSpace=wrap;connectable=0;fillColor=none;top=0;left=0;bottom=0;right=0;overflow=hidden;" vertex="1" parent="20"><mxGeometry x="94" width="55" height="50" as="geometry"><mxRectangle width="55" height="50" as="alternateBounds"/></mxGeometry></mxCell><mxCell id="23" value="T" style="shape=partialRectangle;html=1;whiteSpace=wrap;connectable=0;fillColor=none;top=0;left=0;bottom=0;right=0;overflow=hidden;" vertex="1" parent="20"><mxGeometry x="149" width="54" height="50" as="geometry"><mxRectangle width="54" height="50" as="alternateBounds"/></mxGeometry></mxCell><mxCell id="54" value="T" style="shape=partialRectangle;html=1;whiteSpace=wrap;connectable=0;fillColor=none;top=0;left=0;bottom=0;right=0;overflow=hidden;" vertex="1" parent="20"><mxGeometry x="203" width="45" height="50" as="geometry"><mxRectangle width="45" height="50" as="alternateBounds"/></mxGeometry></mxCell><mxCell id="65" value="T" style="shape=partialRectangle;html=1;whiteSpace=wrap;connectable=0;fillColor=none;top=0;left=0;bottom=0;right=0;overflow=hidden;" vertex="1" parent="20"><mxGeometry x="248" width="53" height="50" as="geometry"><mxRectangle width="53" height="50" as="alternateBounds"/></mxGeometry></mxCell><mxCell id="70" value="T" style="shape=partialRectangle;html=1;whiteSpace=wrap;connectable=0;fillColor=none;top=0;left=0;bottom=0;right=0;overflow=hidden;" vertex="1" parent="20"><mxGeometry x="301" width="54" height="50" as="geometry"><mxRectangle width="54" height="50" as="alternateBounds"/></mxGeometry></mxCell><mxCell id="75" value="T" style="shape=partialRectangle;html=1;whiteSpace=wrap;connectable=0;fillColor=none;top=0;left=0;bottom=0;right=0;overflow=hidden;" vertex="1" parent="20"><mxGeometry x="355" width="53" height="50" as="geometry"><mxRectangle width="53" height="50" as="alternateBounds"/></mxGeometry></mxCell><mxCell id="80" style="shape=partialRectangle;html=1;whiteSpace=wrap;connectable=0;fillColor=none;top=0;left=0;bottom=0;right=0;overflow=hidden;" vertex="1" parent="20"><mxGeometry x="408" width="53" height="50" as="geometry"><mxRectangle width="53" height="50" as="alternateBounds"/></mxGeometry></mxCell><mxCell id="85" style="shape=partialRectangle;html=1;whiteSpace=wrap;connectable=0;fillColor=none;top=0;left=0;bottom=0;right=0;overflow=hidden;" vertex="1" parent="20"><mxGeometry x="461" width="54" height="50" as="geometry"><mxRectangle width="54" height="50" as="alternateBounds"/></mxGeometry></mxCell><mxCell id="90" style="shape=partialRectangle;html=1;whiteSpace=wrap;connectable=0;fillColor=none;top=0;left=0;bottom=0;right=0;overflow=hidden;" vertex="1" parent="20"><mxGeometry x="515" width="54" height="50" as="geometry"><mxRectangle width="54" height="50" as="alternateBounds"/></mxGeometry></mxCell><mxCell id="95" style="shape=partialRectangle;html=1;whiteSpace=wrap;connectable=0;fillColor=none;top=0;left=0;bottom=0;right=0;overflow=hidden;" vertex="1" parent="20"><mxGeometry x="569" width="54" height="50" as="geometry"><mxRectangle width="54" height="50" as="alternateBounds"/></mxGeometry></mxCell><mxCell id="48" style="shape=tableRow;horizontal=0;startSize=0;swimlaneHead=0;swimlaneBody=0;top=0;left=0;bottom=0;right=0;collapsible=0;dropTarget=0;fillColor=none;points=[[0,0.5],[1,0.5]];portConstraint=eastwest;" vertex="1" parent="15"><mxGeometry y="240" width="623" height="40" as="geometry"/></mxCell><mxCell id="49" value="&lt;span style=&quot;font-size: 17px;&quot;&gt;小学四年级&lt;/span&gt;" style="shape=partialRectangle;html=1;whiteSpace=wrap;connectable=0;fillColor=none;top=0;left=0;bottom=0;right=0;overflow=hidden;" vertex="1" parent="48"><mxGeometry width="94" height="40" as="geometry"><mxRectangle width="94" height="40" as="alternateBounds"/></mxGeometry></mxCell><mxCell id="50" value="T" style="shape=partialRectangle;html=1;whiteSpace=wrap;connectable=0;fillColor=none;top=0;left=0;bottom=0;right=0;overflow=hidden;" vertex="1" parent="48"><mxGeometry x="94" width="55" height="40" as="geometry"><mxRectangle width="55" height="40" as="alternateBounds"/></mxGeometry></mxCell><mxCell id="51" value="T" style="shape=partialRectangle;html=1;whiteSpace=wrap;connectable=0;fillColor=none;top=0;left=0;bottom=0;right=0;overflow=hidden;" vertex="1" parent="48"><mxGeometry x="149" width="54" height="40" as="geometry"><mxRectangle width="54" height="40" as="alternateBounds"/></mxGeometry></mxCell><mxCell id="55" value="T" style="shape=partialRectangle;html=1;whiteSpace=wrap;connectable=0;fillColor=none;top=0;left=0;bottom=0;right=0;overflow=hidden;" vertex="1" parent="48"><mxGeometry x="203" width="45" height="40" as="geometry"><mxRectangle width="45" height="40" as="alternateBounds"/></mxGeometry></mxCell><mxCell id="66" value="T" style="shape=partialRectangle;html=1;whiteSpace=wrap;connectable=0;fillColor=none;top=0;left=0;bottom=0;right=0;overflow=hidden;" vertex="1" parent="48"><mxGeometry x="248" width="53" height="40" as="geometry"><mxRectangle width="53" height="40" as="alternateBounds"/></mxGeometry></mxCell><mxCell id="71" value="T" style="shape=partialRectangle;html=1;whiteSpace=wrap;connectable=0;fillColor=none;top=0;left=0;bottom=0;right=0;overflow=hidden;" vertex="1" parent="48"><mxGeometry x="301" width="54" height="40" as="geometry"><mxRectangle width="54" height="40" as="alternateBounds"/></mxGeometry></mxCell><mxCell id="76" value="T" style="shape=partialRectangle;html=1;whiteSpace=wrap;connectable=0;fillColor=none;top=0;left=0;bottom=0;right=0;overflow=hidden;" vertex="1" parent="48"><mxGeometry x="355" width="53" height="40" as="geometry"><mxRectangle width="53" height="40" as="alternateBounds"/></mxGeometry></mxCell><mxCell id="81" style="shape=partialRectangle;html=1;whiteSpace=wrap;connectable=0;fillColor=none;top=0;left=0;bottom=0;right=0;overflow=hidden;" vertex="1" parent="48"><mxGeometry x="408" width="53" height="40" as="geometry"><mxRectangle width="53" height="40" as="alternateBounds"/></mxGeometry></mxCell><mxCell id="86" style="shape=partialRectangle;html=1;whiteSpace=wrap;connectable=0;fillColor=none;top=0;left=0;bottom=0;right=0;overflow=hidden;" vertex="1" parent="48"><mxGeometry x="461" width="54" height="40" as="geometry"><mxRectangle width="54" height="40" as="alternateBounds"/></mxGeometry></mxCell><mxCell id="91" style="shape=partialRectangle;html=1;whiteSpace=wrap;connectable=0;fillColor=none;top=0;left=0;bottom=0;right=0;overflow=hidden;" vertex="1" parent="48"><mxGeometry x="515" width="54" height="40" as="geometry"><mxRectangle width="54" height="40" as="alternateBounds"/></mxGeometry></mxCell><mxCell id="96" style="shape=partialRectangle;html=1;whiteSpace=wrap;connectable=0;fillColor=none;top=0;left=0;bottom=0;right=0;overflow=hidden;" vertex="1" parent="48"><mxGeometry x="569" width="54" height="40" as="geometry"><mxRectangle width="54" height="40" as="alternateBounds"/></mxGeometry></mxCell><mxCell id="133" style="shape=tableRow;horizontal=0;startSize=0;swimlaneHead=0;swimlaneBody=0;top=0;left=0;bottom=0;right=0;collapsible=0;dropTarget=0;fillColor=none;points=[[0,0.5],[1,0.5]];portConstraint=eastwest;" vertex="1" parent="15"><mxGeometry y="280" width="623" height="40" as="geometry"/></mxCell><mxCell id="134" value="&lt;font style=&quot;font-size: 17px;&quot;&gt;小学五年级&lt;/font&gt;" style="shape=partialRectangle;html=1;whiteSpace=wrap;connectable=0;fillColor=none;top=0;left=0;bottom=0;right=0;overflow=hidden;" vertex="1" parent="133"><mxGeometry width="94" height="40" as="geometry"><mxRectangle width="94" height="40" as="alternateBounds"/></mxGeometry></mxCell><mxCell id="135" value="T" style="shape=partialRectangle;html=1;whiteSpace=wrap;connectable=0;fillColor=none;top=0;left=0;bottom=0;right=0;overflow=hidden;" vertex="1" parent="133"><mxGeometry x="94" width="55" height="40" as="geometry"><mxRectangle width="55" height="40" as="alternateBounds"/></mxGeometry></mxCell><mxCell id="136" value="T" style="shape=partialRectangle;html=1;whiteSpace=wrap;connectable=0;fillColor=none;top=0;left=0;bottom=0;right=0;overflow=hidden;" vertex="1" parent="133"><mxGeometry x="149" width="54" height="40" as="geometry"><mxRectangle width="54" height="40" as="alternateBounds"/></mxGeometry></mxCell><mxCell id="137" value="T" style="shape=partialRectangle;html=1;whiteSpace=wrap;connectable=0;fillColor=none;top=0;left=0;bottom=0;right=0;overflow=hidden;" vertex="1" parent="133"><mxGeometry x="203" width="45" height="40" as="geometry"><mxRectangle width="45" height="40" as="alternateBounds"/></mxGeometry></mxCell><mxCell id="138" value="T" style="shape=partialRectangle;html=1;whiteSpace=wrap;connectable=0;fillColor=none;top=0;left=0;bottom=0;right=0;overflow=hidden;" vertex="1" parent="133"><mxGeometry x="248" width="53" height="40" as="geometry"><mxRectangle width="53" height="40" as="alternateBounds"/></mxGeometry></mxCell><mxCell id="139" value="T" style="shape=partialRectangle;html=1;whiteSpace=wrap;connectable=0;fillColor=none;top=0;left=0;bottom=0;right=0;overflow=hidden;" vertex="1" parent="133"><mxGeometry x="301" width="54" height="40" as="geometry"><mxRectangle width="54" height="40" as="alternateBounds"/></mxGeometry></mxCell><mxCell id="140" value="T" style="shape=partialRectangle;html=1;whiteSpace=wrap;connectable=0;fillColor=none;top=0;left=0;bottom=0;right=0;overflow=hidden;" vertex="1" parent="133"><mxGeometry x="355" width="53" height="40" as="geometry"><mxRectangle width="53" height="40" as="alternateBounds"/></mxGeometry></mxCell><mxCell id="141" value="T" style="shape=partialRectangle;html=1;whiteSpace=wrap;connectable=0;fillColor=none;top=0;left=0;bottom=0;right=0;overflow=hidden;" vertex="1" parent="133"><mxGeometry x="408" width="53" height="40" as="geometry"><mxRectangle width="53" height="40" as="alternateBounds"/></mxGeometry></mxCell><mxCell id="142" style="shape=partialRectangle;html=1;whiteSpace=wrap;connectable=0;fillColor=none;top=0;left=0;bottom=0;right=0;overflow=hidden;" vertex="1" parent="133"><mxGeometry x="461" width="54" height="40" as="geometry"><mxRectangle width="54" height="40" as="alternateBounds"/></mxGeometry></mxCell><mxCell id="143" style="shape=partialRectangle;html=1;whiteSpace=wrap;connectable=0;fillColor=none;top=0;left=0;bottom=0;right=0;overflow=hidden;" vertex="1" parent="133"><mxGeometry x="515" width="54" height="40" as="geometry"><mxRectangle width="54" height="40" as="alternateBounds"/></mxGeometry></mxCell><mxCell id="144" style="shape=partialRectangle;html=1;whiteSpace=wrap;connectable=0;fillColor=none;top=0;left=0;bottom=0;right=0;overflow=hidden;" vertex="1" parent="133"><mxGeometry x="569" width="54" height="40" as="geometry"><mxRectangle width="54" height="40" as="alternateBounds"/></mxGeometry></mxCell><mxCell id="121" style="shape=tableRow;horizontal=0;startSize=0;swimlaneHead=0;swimlaneBody=0;top=0;left=0;bottom=0;right=0;collapsible=0;dropTarget=0;fillColor=none;points=[[0,0.5],[1,0.5]];portConstraint=eastwest;" vertex="1" parent="15"><mxGeometry y="320" width="623" height="40" as="geometry"/></mxCell><mxCell id="122" value="&lt;font style=&quot;font-size: 17px;&quot;&gt;小学六年级&lt;/font&gt;" style="shape=partialRectangle;html=1;whiteSpace=wrap;connectable=0;fillColor=none;top=0;left=0;bottom=0;right=0;overflow=hidden;" vertex="1" parent="121"><mxGeometry width="94" height="40" as="geometry"><mxRectangle width="94" height="40" as="alternateBounds"/></mxGeometry></mxCell><mxCell id="123" value="T" style="shape=partialRectangle;html=1;whiteSpace=wrap;connectable=0;fillColor=none;top=0;left=0;bottom=0;right=0;overflow=hidden;" vertex="1" parent="121"><mxGeometry x="94" width="55" height="40" as="geometry"><mxRectangle width="55" height="40" as="alternateBounds"/></mxGeometry></mxCell><mxCell id="124" value="T" style="shape=partialRectangle;html=1;whiteSpace=wrap;connectable=0;fillColor=none;top=0;left=0;bottom=0;right=0;overflow=hidden;" vertex="1" parent="121"><mxGeometry x="149" width="54" height="40" as="geometry"><mxRectangle width="54" height="40" as="alternateBounds"/></mxGeometry></mxCell><mxCell id="125" value="T" style="shape=partialRectangle;html=1;whiteSpace=wrap;connectable=0;fillColor=none;top=0;left=0;bottom=0;right=0;overflow=hidden;" vertex="1" parent="121"><mxGeometry x="203" width="45" height="40" as="geometry"><mxRectangle width="45" height="40" as="alternateBounds"/></mxGeometry></mxCell><mxCell id="126" value="T" style="shape=partialRectangle;html=1;whiteSpace=wrap;connectable=0;fillColor=none;top=0;left=0;bottom=0;right=0;overflow=hidden;" vertex="1" parent="121"><mxGeometry x="248" width="53" height="40" as="geometry"><mxRectangle width="53" height="40" as="alternateBounds"/></mxGeometry></mxCell><mxCell id="127" value="T" style="shape=partialRectangle;html=1;whiteSpace=wrap;connectable=0;fillColor=none;top=0;left=0;bottom=0;right=0;overflow=hidden;" vertex="1" parent="121"><mxGeometry x="301" width="54" height="40" as="geometry"><mxRectangle width="54" height="40" as="alternateBounds"/></mxGeometry></mxCell><mxCell id="128" value="T" style="shape=partialRectangle;html=1;whiteSpace=wrap;connectable=0;fillColor=none;top=0;left=0;bottom=0;right=0;overflow=hidden;" vertex="1" parent="121"><mxGeometry x="355" width="53" height="40" as="geometry"><mxRectangle width="53" height="40" as="alternateBounds"/></mxGeometry></mxCell><mxCell id="129" value="T" style="shape=partialRectangle;html=1;whiteSpace=wrap;connectable=0;fillColor=none;top=0;left=0;bottom=0;right=0;overflow=hidden;" vertex="1" parent="121"><mxGeometry x="408" width="53" height="40" as="geometry"><mxRectangle width="53" height="40" as="alternateBounds"/></mxGeometry></mxCell><mxCell id="130" style="shape=partialRectangle;html=1;whiteSpace=wrap;connectable=0;fillColor=none;top=0;left=0;bottom=0;right=0;overflow=hidden;" vertex="1" parent="121"><mxGeometry x="461" width="54" height="40" as="geometry"><mxRectangle width="54" height="40" as="alternateBounds"/></mxGeometry></mxCell><mxCell id="131" style="shape=partialRectangle;html=1;whiteSpace=wrap;connectable=0;fillColor=none;top=0;left=0;bottom=0;right=0;overflow=hidden;" vertex="1" parent="121"><mxGeometry x="515" width="54" height="40" as="geometry"><mxRectangle width="54" height="40" as="alternateBounds"/></mxGeometry></mxCell><mxCell id="132" style="shape=partialRectangle;html=1;whiteSpace=wrap;connectable=0;fillColor=none;top=0;left=0;bottom=0;right=0;overflow=hidden;" vertex="1" parent="121"><mxGeometry x="569" width="54" height="40" as="geometry"><mxRectangle width="54" height="40" as="alternateBounds"/></mxGeometry></mxCell><mxCell id="109" style="shape=tableRow;horizontal=0;startSize=0;swimlaneHead=0;swimlaneBody=0;top=0;left=0;bottom=0;right=0;collapsible=0;dropTarget=0;fillColor=none;points=[[0,0.5],[1,0.5]];portConstraint=eastwest;" vertex="1" parent="15"><mxGeometry y="360" width="623" height="39" as="geometry"/></mxCell><mxCell id="110" value="&lt;font style=&quot;font-size: 18px;&quot;&gt;初一&lt;/font&gt;" style="shape=partialRectangle;html=1;whiteSpace=wrap;connectable=0;fillColor=none;top=0;left=0;bottom=0;right=0;overflow=hidden;" vertex="1" parent="109"><mxGeometry width="94" height="39" as="geometry"><mxRectangle width="94" height="39" as="alternateBounds"/></mxGeometry></mxCell><mxCell id="111" value="T" style="shape=partialRectangle;html=1;whiteSpace=wrap;connectable=0;fillColor=none;top=0;left=0;bottom=0;right=0;overflow=hidden;" vertex="1" parent="109"><mxGeometry x="94" width="55" height="39" as="geometry"><mxRectangle width="55" height="39" as="alternateBounds"/></mxGeometry></mxCell><mxCell id="112" value="T" style="shape=partialRectangle;html=1;whiteSpace=wrap;connectable=0;fillColor=none;top=0;left=0;bottom=0;right=0;overflow=hidden;" vertex="1" parent="109"><mxGeometry x="149" width="54" height="39" as="geometry"><mxRectangle width="54" height="39" as="alternateBounds"/></mxGeometry></mxCell><mxCell id="113" value="T" style="shape=partialRectangle;html=1;whiteSpace=wrap;connectable=0;fillColor=none;top=0;left=0;bottom=0;right=0;overflow=hidden;" vertex="1" parent="109"><mxGeometry x="203" width="45" height="39" as="geometry"><mxRectangle width="45" height="39" as="alternateBounds"/></mxGeometry></mxCell><mxCell id="114" value="T" style="shape=partialRectangle;html=1;whiteSpace=wrap;connectable=0;fillColor=none;top=0;left=0;bottom=0;right=0;overflow=hidden;" vertex="1" parent="109"><mxGeometry x="248" width="53" height="39" as="geometry"><mxRectangle width="53" height="39" as="alternateBounds"/></mxGeometry></mxCell><mxCell id="115" style="shape=partialRectangle;html=1;whiteSpace=wrap;connectable=0;fillColor=none;top=0;left=0;bottom=0;right=0;overflow=hidden;" vertex="1" parent="109"><mxGeometry x="301" width="54" height="39" as="geometry"><mxRectangle width="54" height="39" as="alternateBounds"/></mxGeometry></mxCell><mxCell id="116" value="T" style="shape=partialRectangle;html=1;whiteSpace=wrap;connectable=0;fillColor=none;top=0;left=0;bottom=0;right=0;overflow=hidden;" vertex="1" parent="109"><mxGeometry x="355" width="53" height="39" as="geometry"><mxRectangle width="53" height="39" as="alternateBounds"/></mxGeometry></mxCell><mxCell id="117" style="shape=partialRectangle;html=1;whiteSpace=wrap;connectable=0;fillColor=none;top=0;left=0;bottom=0;right=0;overflow=hidden;" vertex="1" parent="109"><mxGeometry x="408" width="53" height="39" as="geometry"><mxRectangle width="53" height="39" as="alternateBounds"/></mxGeometry></mxCell><mxCell id="118" value="T" style="shape=partialRectangle;html=1;whiteSpace=wrap;connectable=0;fillColor=none;top=0;left=0;bottom=0;right=0;overflow=hidden;" vertex="1" parent="109"><mxGeometry x="461" width="54" height="39" as="geometry"><mxRectangle width="54" height="39" as="alternateBounds"/></mxGeometry></mxCell><mxCell id="119" value="T" style="shape=partialRectangle;html=1;whiteSpace=wrap;connectable=0;fillColor=none;top=0;left=0;bottom=0;right=0;overflow=hidden;" vertex="1" parent="109"><mxGeometry x="515" width="54" height="39" as="geometry"><mxRectangle width="54" height="39" as="alternateBounds"/></mxGeometry></mxCell><mxCell id="120" value="T" style="shape=partialRectangle;html=1;whiteSpace=wrap;connectable=0;fillColor=none;top=0;left=0;bottom=0;right=0;overflow=hidden;" vertex="1" parent="109"><mxGeometry x="569" width="54" height="39" as="geometry"><mxRectangle width="54" height="39" as="alternateBounds"/></mxGeometry></mxCell><mxCell id="97" style="shape=tableRow;horizontal=0;startSize=0;swimlaneHead=0;swimlaneBody=0;top=0;left=0;bottom=0;right=0;collapsible=0;dropTarget=0;fillColor=none;points=[[0,0.5],[1,0.5]];portConstraint=eastwest;" vertex="1" parent="15"><mxGeometry y="399" width="623" height="40" as="geometry"/></mxCell><mxCell id="98" value="&lt;font style=&quot;font-size: 18px;&quot;&gt;初二&lt;/font&gt;" style="shape=partialRectangle;html=1;whiteSpace=wrap;connectable=0;fillColor=none;top=0;left=0;bottom=0;right=0;overflow=hidden;" vertex="1" parent="97"><mxGeometry width="94" height="40" as="geometry"><mxRectangle width="94" height="40" as="alternateBounds"/></mxGeometry></mxCell><mxCell id="99" value="T" style="shape=partialRectangle;html=1;whiteSpace=wrap;connectable=0;fillColor=none;top=0;left=0;bottom=0;right=0;overflow=hidden;" vertex="1" parent="97"><mxGeometry x="94" width="55" height="40" as="geometry"><mxRectangle width="55" height="40" as="alternateBounds"/></mxGeometry></mxCell><mxCell id="100" value="T" style="shape=partialRectangle;html=1;whiteSpace=wrap;connectable=0;fillColor=none;top=0;left=0;bottom=0;right=0;overflow=hidden;" vertex="1" parent="97"><mxGeometry x="149" width="54" height="40" as="geometry"><mxRectangle width="54" height="40" as="alternateBounds"/></mxGeometry></mxCell><mxCell id="101" value="T" style="shape=partialRectangle;html=1;whiteSpace=wrap;connectable=0;fillColor=none;top=0;left=0;bottom=0;right=0;overflow=hidden;" vertex="1" parent="97"><mxGeometry x="203" width="45" height="40" as="geometry"><mxRectangle width="45" height="40" as="alternateBounds"/></mxGeometry></mxCell><mxCell id="102" value="T" style="shape=partialRectangle;html=1;whiteSpace=wrap;connectable=0;fillColor=none;top=0;left=0;bottom=0;right=0;overflow=hidden;" vertex="1" parent="97"><mxGeometry x="248" width="53" height="40" as="geometry"><mxRectangle width="53" height="40" as="alternateBounds"/></mxGeometry></mxCell><mxCell id="103" style="shape=partialRectangle;html=1;whiteSpace=wrap;connectable=0;fillColor=none;top=0;left=0;bottom=0;right=0;overflow=hidden;" vertex="1" parent="97"><mxGeometry x="301" width="54" height="40" as="geometry"><mxRectangle width="54" height="40" as="alternateBounds"/></mxGeometry></mxCell><mxCell id="104" value="T" style="shape=partialRectangle;html=1;whiteSpace=wrap;connectable=0;fillColor=none;top=0;left=0;bottom=0;right=0;overflow=hidden;" vertex="1" parent="97"><mxGeometry x="355" width="53" height="40" as="geometry"><mxRectangle width="53" height="40" as="alternateBounds"/></mxGeometry></mxCell><mxCell id="105" style="shape=partialRectangle;html=1;whiteSpace=wrap;connectable=0;fillColor=none;top=0;left=0;bottom=0;right=0;overflow=hidden;" vertex="1" parent="97"><mxGeometry x="408" width="53" height="40" as="geometry"><mxRectangle width="53" height="40" as="alternateBounds"/></mxGeometry></mxCell><mxCell id="106" value="T" style="shape=partialRectangle;html=1;whiteSpace=wrap;connectable=0;fillColor=none;top=0;left=0;bottom=0;right=0;overflow=hidden;" vertex="1" parent="97"><mxGeometry x="461" width="54" height="40" as="geometry"><mxRectangle width="54" height="40" as="alternateBounds"/></mxGeometry></mxCell><mxCell id="107" value="T" style="shape=partialRectangle;html=1;whiteSpace=wrap;connectable=0;fillColor=none;top=0;left=0;bottom=0;right=0;overflow=hidden;" vertex="1" parent="97"><mxGeometry x="515" width="54" height="40" as="geometry"><mxRectangle width="54" height="40" as="alternateBounds"/></mxGeometry></mxCell><mxCell id="108" value="T" style="shape=partialRectangle;html=1;whiteSpace=wrap;connectable=0;fillColor=none;top=0;left=0;bottom=0;right=0;overflow=hidden;" vertex="1" parent="97"><mxGeometry x="569" width="54" height="40" as="geometry"><mxRectangle width="54" height="40" as="alternateBounds"/></mxGeometry></mxCell><mxCell id="145" style="shape=tableRow;horizontal=0;startSize=0;swimlaneHead=0;swimlaneBody=0;top=0;left=0;bottom=0;right=0;collapsible=0;dropTarget=0;fillColor=none;points=[[0,0.5],[1,0.5]];portConstraint=eastwest;" vertex="1" parent="15"><mxGeometry y="439" width="623" height="40" as="geometry"/></mxCell><mxCell id="146" value="&lt;font style=&quot;font-size: 18px;&quot;&gt;初三&lt;/font&gt;" style="shape=partialRectangle;html=1;whiteSpace=wrap;connectable=0;fillColor=none;top=0;left=0;bottom=0;right=0;overflow=hidden;" vertex="1" parent="145"><mxGeometry width="94" height="40" as="geometry"><mxRectangle width="94" height="40" as="alternateBounds"/></mxGeometry></mxCell><mxCell id="147" value="T" style="shape=partialRectangle;html=1;whiteSpace=wrap;connectable=0;fillColor=none;top=0;left=0;bottom=0;right=0;overflow=hidden;" vertex="1" parent="145"><mxGeometry x="94" width="55" height="40" as="geometry"><mxRectangle width="55" height="40" as="alternateBounds"/></mxGeometry></mxCell><mxCell id="148" value="T" style="shape=partialRectangle;html=1;whiteSpace=wrap;connectable=0;fillColor=none;top=0;left=0;bottom=0;right=0;overflow=hidden;" vertex="1" parent="145"><mxGeometry x="149" width="54" height="40" as="geometry"><mxRectangle width="54" height="40" as="alternateBounds"/></mxGeometry></mxCell><mxCell id="149" value="T" style="shape=partialRectangle;html=1;whiteSpace=wrap;connectable=0;fillColor=none;top=0;left=0;bottom=0;right=0;overflow=hidden;" vertex="1" parent="145"><mxGeometry x="203" width="45" height="40" as="geometry"><mxRectangle width="45" height="40" as="alternateBounds"/></mxGeometry></mxCell><mxCell id="150" value="T" style="shape=partialRectangle;html=1;whiteSpace=wrap;connectable=0;fillColor=none;top=0;left=0;bottom=0;right=0;overflow=hidden;" vertex="1" parent="145"><mxGeometry x="248" width="53" height="40" as="geometry"><mxRectangle width="53" height="40" as="alternateBounds"/></mxGeometry></mxCell><mxCell id="151" style="shape=partialRectangle;html=1;whiteSpace=wrap;connectable=0;fillColor=none;top=0;left=0;bottom=0;right=0;overflow=hidden;" vertex="1" parent="145"><mxGeometry x="301" width="54" height="40" as="geometry"><mxRectangle width="54" height="40" as="alternateBounds"/></mxGeometry></mxCell><mxCell id="152" value="T" style="shape=partialRectangle;html=1;whiteSpace=wrap;connectable=0;fillColor=none;top=0;left=0;bottom=0;right=0;overflow=hidden;" vertex="1" parent="145"><mxGeometry x="355" width="53" height="40" as="geometry"><mxRectangle width="53" height="40" as="alternateBounds"/></mxGeometry></mxCell><mxCell id="153" style="shape=partialRectangle;html=1;whiteSpace=wrap;connectable=0;fillColor=none;top=0;left=0;bottom=0;right=0;overflow=hidden;" vertex="1" parent="145"><mxGeometry x="408" width="53" height="40" as="geometry"><mxRectangle width="53" height="40" as="alternateBounds"/></mxGeometry></mxCell><mxCell id="154" value="T" style="shape=partialRectangle;html=1;whiteSpace=wrap;connectable=0;fillColor=none;top=0;left=0;bottom=0;right=0;overflow=hidden;" vertex="1" parent="145"><mxGeometry x="461" width="54" height="40" as="geometry"><mxRectangle width="54" height="40" as="alternateBounds"/></mxGeometry></mxCell><mxCell id="155" value="T" style="shape=partialRectangle;html=1;whiteSpace=wrap;connectable=0;fillColor=none;top=0;left=0;bottom=0;right=0;overflow=hidden;" vertex="1" parent="145"><mxGeometry x="515" width="54" height="40" as="geometry"><mxRectangle width="54" height="40" as="alternateBounds"/></mxGeometry></mxCell><mxCell id="156" value="T" style="shape=partialRectangle;html=1;whiteSpace=wrap;connectable=0;fillColor=none;top=0;left=0;bottom=0;right=0;overflow=hidden;" vertex="1" parent="145"><mxGeometry x="569" width="54" height="40" as="geometry"><mxRectangle width="54" height="40" as="alternateBounds"/></mxGeometry></mxCell><mxCell id="157" style="shape=tableRow;horizontal=0;startSize=0;swimlaneHead=0;swimlaneBody=0;top=0;left=0;bottom=0;right=0;collapsible=0;dropTarget=0;fillColor=none;points=[[0,0.5],[1,0.5]];portConstraint=eastwest;" vertex="1" parent="15"><mxGeometry y="479" width="623" height="40" as="geometry"/></mxCell><mxCell id="158" value="&lt;font style=&quot;font-size: 18px;&quot;&gt;高&lt;/font&gt;一" style="shape=partialRectangle;html=1;whiteSpace=wrap;connectable=0;fillColor=none;top=0;left=0;bottom=0;right=0;overflow=hidden;" vertex="1" parent="157"><mxGeometry width="94" height="40" as="geometry"><mxRectangle width="94" height="40" as="alternateBounds"/></mxGeometry></mxCell><mxCell id="159" value="T" style="shape=partialRectangle;html=1;whiteSpace=wrap;connectable=0;fillColor=none;top=0;left=0;bottom=0;right=0;overflow=hidden;" vertex="1" parent="157"><mxGeometry x="94" width="55" height="40" as="geometry"><mxRectangle width="55" height="40" as="alternateBounds"/></mxGeometry></mxCell><mxCell id="160" value="T" style="shape=partialRectangle;html=1;whiteSpace=wrap;connectable=0;fillColor=none;top=0;left=0;bottom=0;right=0;overflow=hidden;" vertex="1" parent="157"><mxGeometry x="149" width="54" height="40" as="geometry"><mxRectangle width="54" height="40" as="alternateBounds"/></mxGeometry></mxCell><mxCell id="161" value="T" style="shape=partialRectangle;html=1;whiteSpace=wrap;connectable=0;fillColor=none;top=0;left=0;bottom=0;right=0;overflow=hidden;" vertex="1" parent="157"><mxGeometry x="203" width="45" height="40" as="geometry"><mxRectangle width="45" height="40" as="alternateBounds"/></mxGeometry></mxCell><mxCell id="162" value="T" style="shape=partialRectangle;html=1;whiteSpace=wrap;connectable=0;fillColor=none;top=0;left=0;bottom=0;right=0;overflow=hidden;" vertex="1" parent="157"><mxGeometry x="248" width="53" height="40" as="geometry"><mxRectangle width="53" height="40" as="alternateBounds"/></mxGeometry></mxCell><mxCell id="163" style="shape=partialRectangle;html=1;whiteSpace=wrap;connectable=0;fillColor=none;top=0;left=0;bottom=0;right=0;overflow=hidden;" vertex="1" parent="157"><mxGeometry x="301" width="54" height="40" as="geometry"><mxRectangle width="54" height="40" as="alternateBounds"/></mxGeometry></mxCell><mxCell id="164" value="T" style="shape=partialRectangle;html=1;whiteSpace=wrap;connectable=0;fillColor=none;top=0;left=0;bottom=0;right=0;overflow=hidden;" vertex="1" parent="157"><mxGeometry x="355" width="53" height="40" as="geometry"><mxRectangle width="53" height="40" as="alternateBounds"/></mxGeometry></mxCell><mxCell id="165" style="shape=partialRectangle;html=1;whiteSpace=wrap;connectable=0;fillColor=none;top=0;left=0;bottom=0;right=0;overflow=hidden;" vertex="1" parent="157"><mxGeometry x="408" width="53" height="40" as="geometry"><mxRectangle width="53" height="40" as="alternateBounds"/></mxGeometry></mxCell><mxCell id="166" value="T" style="shape=partialRectangle;html=1;whiteSpace=wrap;connectable=0;fillColor=none;top=0;left=0;bottom=0;right=0;overflow=hidden;" vertex="1" parent="157"><mxGeometry x="461" width="54" height="40" as="geometry"><mxRectangle width="54" height="40" as="alternateBounds"/></mxGeometry></mxCell><mxCell id="167" value="T" style="shape=partialRectangle;html=1;whiteSpace=wrap;connectable=0;fillColor=none;top=0;left=0;bottom=0;right=0;overflow=hidden;" vertex="1" parent="157"><mxGeometry x="515" width="54" height="40" as="geometry"><mxRectangle width="54" height="40" as="alternateBounds"/></mxGeometry></mxCell><mxCell id="168" value="T" style="shape=partialRectangle;html=1;whiteSpace=wrap;connectable=0;fillColor=none;top=0;left=0;bottom=0;right=0;overflow=hidden;" vertex="1" parent="157"><mxGeometry x="569" width="54" height="40" as="geometry"><mxRectangle width="54" height="40" as="alternateBounds"/></mxGeometry></mxCell><mxCell id="169" style="shape=tableRow;horizontal=0;startSize=0;swimlaneHead=0;swimlaneBody=0;top=0;left=0;bottom=0;right=0;collapsible=0;dropTarget=0;fillColor=none;points=[[0,0.5],[1,0.5]];portConstraint=eastwest;" vertex="1" parent="15"><mxGeometry y="519" width="623" height="41" as="geometry"/></mxCell><mxCell id="170" value="&lt;font style=&quot;font-size: 18px;&quot;&gt;高二&lt;/font&gt;" style="shape=partialRectangle;html=1;whiteSpace=wrap;connectable=0;fillColor=none;top=0;left=0;bottom=0;right=0;overflow=hidden;" vertex="1" parent="169"><mxGeometry width="94" height="41" as="geometry"><mxRectangle width="94" height="41" as="alternateBounds"/></mxGeometry></mxCell><mxCell id="171" value="T" style="shape=partialRectangle;html=1;whiteSpace=wrap;connectable=0;fillColor=none;top=0;left=0;bottom=0;right=0;overflow=hidden;" vertex="1" parent="169"><mxGeometry x="94" width="55" height="41" as="geometry"><mxRectangle width="55" height="41" as="alternateBounds"/></mxGeometry></mxCell><mxCell id="172" value="T" style="shape=partialRectangle;html=1;whiteSpace=wrap;connectable=0;fillColor=none;top=0;left=0;bottom=0;right=0;overflow=hidden;" vertex="1" parent="169"><mxGeometry x="149" width="54" height="41" as="geometry"><mxRectangle width="54" height="41" as="alternateBounds"/></mxGeometry></mxCell><mxCell id="173" value="T" style="shape=partialRectangle;html=1;whiteSpace=wrap;connectable=0;fillColor=none;top=0;left=0;bottom=0;right=0;overflow=hidden;" vertex="1" parent="169"><mxGeometry x="203" width="45" height="41" as="geometry"><mxRectangle width="45" height="41" as="alternateBounds"/></mxGeometry></mxCell><mxCell id="174" value="T" style="shape=partialRectangle;html=1;whiteSpace=wrap;connectable=0;fillColor=none;top=0;left=0;bottom=0;right=0;overflow=hidden;" vertex="1" parent="169"><mxGeometry x="248" width="53" height="41" as="geometry"><mxRectangle width="53" height="41" as="alternateBounds"/></mxGeometry></mxCell><mxCell id="175" style="shape=partialRectangle;html=1;whiteSpace=wrap;connectable=0;fillColor=none;top=0;left=0;bottom=0;right=0;overflow=hidden;" vertex="1" parent="169"><mxGeometry x="301" width="54" height="41" as="geometry"><mxRectangle width="54" height="41" as="alternateBounds"/></mxGeometry></mxCell><mxCell id="176" value="T" style="shape=partialRectangle;html=1;whiteSpace=wrap;connectable=0;fillColor=none;top=0;left=0;bottom=0;right=0;overflow=hidden;" vertex="1" parent="169"><mxGeometry x="355" width="53" height="41" as="geometry"><mxRectangle width="53" height="41" as="alternateBounds"/></mxGeometry></mxCell><mxCell id="177" style="shape=partialRectangle;html=1;whiteSpace=wrap;connectable=0;fillColor=none;top=0;left=0;bottom=0;right=0;overflow=hidden;" vertex="1" parent="169"><mxGeometry x="408" width="53" height="41" as="geometry"><mxRectangle width="53" height="41" as="alternateBounds"/></mxGeometry></mxCell><mxCell id="178" value="T" style="shape=partialRectangle;html=1;whiteSpace=wrap;connectable=0;fillColor=none;top=0;left=0;bottom=0;right=0;overflow=hidden;" vertex="1" parent="169"><mxGeometry x="461" width="54" height="41" as="geometry"><mxRectangle width="54" height="41" as="alternateBounds"/></mxGeometry></mxCell><mxCell id="179" value="T" style="shape=partialRectangle;html=1;whiteSpace=wrap;connectable=0;fillColor=none;top=0;left=0;bottom=0;right=0;overflow=hidden;" vertex="1" parent="169"><mxGeometry x="515" width="54" height="41" as="geometry"><mxRectangle width="54" height="41" as="alternateBounds"/></mxGeometry></mxCell><mxCell id="180" value="T" style="shape=partialRectangle;html=1;whiteSpace=wrap;connectable=0;fillColor=none;top=0;left=0;bottom=0;right=0;overflow=hidden;" vertex="1" parent="169"><mxGeometry x="569" width="54" height="41" as="geometry"><mxRectangle width="54" height="41" as="alternateBounds"/></mxGeometry></mxCell><mxCell id="181" style="shape=tableRow;horizontal=0;startSize=0;swimlaneHead=0;swimlaneBody=0;top=0;left=0;bottom=0;right=0;collapsible=0;dropTarget=0;fillColor=none;points=[[0,0.5],[1,0.5]];portConstraint=eastwest;" vertex="1" parent="15"><mxGeometry y="560" width="623" height="40" as="geometry"/></mxCell><mxCell id="182" value="&lt;font style=&quot;font-size: 18px;&quot;&gt;高三&lt;/font&gt;" style="shape=partialRectangle;html=1;whiteSpace=wrap;connectable=0;fillColor=none;top=0;left=0;bottom=0;right=0;overflow=hidden;" vertex="1" parent="181"><mxGeometry width="94" height="40" as="geometry"><mxRectangle width="94" height="40" as="alternateBounds"/></mxGeometry></mxCell><mxCell id="183" value="T" style="shape=partialRectangle;html=1;whiteSpace=wrap;connectable=0;fillColor=none;top=0;left=0;bottom=0;right=0;overflow=hidden;" vertex="1" parent="181"><mxGeometry x="94" width="55" height="40" as="geometry"><mxRectangle width="55" height="40" as="alternateBounds"/></mxGeometry></mxCell><mxCell id="184" value="T" style="shape=partialRectangle;html=1;whiteSpace=wrap;connectable=0;fillColor=none;top=0;left=0;bottom=0;right=0;overflow=hidden;" vertex="1" parent="181"><mxGeometry x="149" width="54" height="40" as="geometry"><mxRectangle width="54" height="40" as="alternateBounds"/></mxGeometry></mxCell><mxCell id="185" value="T" style="shape=partialRectangle;html=1;whiteSpace=wrap;connectable=0;fillColor=none;top=0;left=0;bottom=0;right=0;overflow=hidden;" vertex="1" parent="181"><mxGeometry x="203" width="45" height="40" as="geometry"><mxRectangle width="45" height="40" as="alternateBounds"/></mxGeometry></mxCell><mxCell id="186" value="T" style="shape=partialRectangle;html=1;whiteSpace=wrap;connectable=0;fillColor=none;top=0;left=0;bottom=0;right=0;overflow=hidden;" vertex="1" parent="181"><mxGeometry x="248" width="53" height="40" as="geometry"><mxRectangle width="53" height="40" as="alternateBounds"/></mxGeometry></mxCell><mxCell id="187" style="shape=partialRectangle;html=1;whiteSpace=wrap;connectable=0;fillColor=none;top=0;left=0;bottom=0;right=0;overflow=hidden;" vertex="1" parent="181"><mxGeometry x="301" width="54" height="40" as="geometry"><mxRectangle width="54" height="40" as="alternateBounds"/></mxGeometry></mxCell><mxCell id="188" value="T" style="shape=partialRectangle;html=1;whiteSpace=wrap;connectable=0;fillColor=none;top=0;left=0;bottom=0;right=0;overflow=hidden;" vertex="1" parent="181"><mxGeometry x="355" width="53" height="40" as="geometry"><mxRectangle width="53" height="40" as="alternateBounds"/></mxGeometry></mxCell><mxCell id="189" style="shape=partialRectangle;html=1;whiteSpace=wrap;connectable=0;fillColor=none;top=0;left=0;bottom=0;right=0;overflow=hidden;" vertex="1" parent="181"><mxGeometry x="408" width="53" height="40" as="geometry"><mxRectangle width="53" height="40" as="alternateBounds"/></mxGeometry></mxCell><mxCell id="190" value="T" style="shape=partialRectangle;html=1;whiteSpace=wrap;connectable=0;fillColor=none;top=0;left=0;bottom=0;right=0;overflow=hidden;" vertex="1" parent="181"><mxGeometry x="461" width="54" height="40" as="geometry"><mxRectangle width="54" height="40" as="alternateBounds"/></mxGeometry></mxCell><mxCell id="191" value="T" style="shape=partialRectangle;html=1;whiteSpace=wrap;connectable=0;fillColor=none;top=0;left=0;bottom=0;right=0;overflow=hidden;" vertex="1" parent="181"><mxGeometry x="515" width="54" height="40" as="geometry"><mxRectangle width="54" height="40" as="alternateBounds"/></mxGeometry></mxCell><mxCell id="192" value="T" style="shape=partialRectangle;html=1;whiteSpace=wrap;connectable=0;fillColor=none;top=0;left=0;bottom=0;right=0;overflow=hidden;" vertex="1" parent="181"><mxGeometry x="569" width="54" height="40" as="geometry"><mxRectangle width="54" height="40" as="alternateBounds"/></mxGeometry></mxCell><mxCell id="193" style="shape=tableRow;horizontal=0;startSize=0;swimlaneHead=0;swimlaneBody=0;top=0;left=0;bottom=0;right=0;collapsible=0;dropTarget=0;fillColor=none;points=[[0,0.5],[1,0.5]];portConstraint=eastwest;" vertex="1" parent="15"><mxGeometry y="600" width="623" height="40" as="geometry"/></mxCell><mxCell id="194" value="&lt;font style=&quot;font-size: 18px;&quot;&gt;大一、大二&lt;/font&gt;" style="shape=partialRectangle;html=1;whiteSpace=wrap;connectable=0;fillColor=none;top=0;left=0;bottom=0;right=0;overflow=hidden;" vertex="1" parent="193"><mxGeometry width="94" height="40" as="geometry"><mxRectangle width="94" height="40" as="alternateBounds"/></mxGeometry></mxCell><mxCell id="195" value="T" style="shape=partialRectangle;html=1;whiteSpace=wrap;connectable=0;fillColor=none;top=0;left=0;bottom=0;right=0;overflow=hidden;" vertex="1" parent="193"><mxGeometry x="94" width="55" height="40" as="geometry"><mxRectangle width="55" height="40" as="alternateBounds"/></mxGeometry></mxCell><mxCell id="196" value="T" style="shape=partialRectangle;html=1;whiteSpace=wrap;connectable=0;fillColor=none;top=0;left=0;bottom=0;right=0;overflow=hidden;" vertex="1" parent="193"><mxGeometry x="149" width="54" height="40" as="geometry"><mxRectangle width="54" height="40" as="alternateBounds"/></mxGeometry></mxCell><mxCell id="197" value="T" style="shape=partialRectangle;html=1;whiteSpace=wrap;connectable=0;fillColor=none;top=0;left=0;bottom=0;right=0;overflow=hidden;" vertex="1" parent="193"><mxGeometry x="203" width="45" height="40" as="geometry"><mxRectangle width="45" height="40" as="alternateBounds"/></mxGeometry></mxCell><mxCell id="198" value="T" style="shape=partialRectangle;html=1;whiteSpace=wrap;connectable=0;fillColor=none;top=0;left=0;bottom=0;right=0;overflow=hidden;" vertex="1" parent="193"><mxGeometry x="248" width="53" height="40" as="geometry"><mxRectangle width="53" height="40" as="alternateBounds"/></mxGeometry></mxCell><mxCell id="199" style="shape=partialRectangle;html=1;whiteSpace=wrap;connectable=0;fillColor=none;top=0;left=0;bottom=0;right=0;overflow=hidden;" vertex="1" parent="193"><mxGeometry x="301" width="54" height="40" as="geometry"><mxRectangle width="54" height="40" as="alternateBounds"/></mxGeometry></mxCell><mxCell id="200" value="T" style="shape=partialRectangle;html=1;whiteSpace=wrap;connectable=0;fillColor=none;top=0;left=0;bottom=0;right=0;overflow=hidden;" vertex="1" parent="193"><mxGeometry x="355" width="53" height="40" as="geometry"><mxRectangle width="53" height="40" as="alternateBounds"/></mxGeometry></mxCell><mxCell id="201" style="shape=partialRectangle;html=1;whiteSpace=wrap;connectable=0;fillColor=none;top=0;left=0;bottom=0;right=0;overflow=hidden;" vertex="1" parent="193"><mxGeometry x="408" width="53" height="40" as="geometry"><mxRectangle width="53" height="40" as="alternateBounds"/></mxGeometry></mxCell><mxCell id="202" value="T" style="shape=partialRectangle;html=1;whiteSpace=wrap;connectable=0;fillColor=none;top=0;left=0;bottom=0;right=0;overflow=hidden;" vertex="1" parent="193"><mxGeometry x="461" width="54" height="40" as="geometry"><mxRectangle width="54" height="40" as="alternateBounds"/></mxGeometry></mxCell><mxCell id="203" value="T" style="shape=partialRectangle;html=1;whiteSpace=wrap;connectable=0;fillColor=none;top=0;left=0;bottom=0;right=0;overflow=hidden;" vertex="1" parent="193"><mxGeometry x="515" width="54" height="40" as="geometry"><mxRectangle width="54" height="40" as="alternateBounds"/></mxGeometry></mxCell><mxCell id="204" value="T" style="shape=partialRectangle;html=1;whiteSpace=wrap;connectable=0;fillColor=none;top=0;left=0;bottom=0;right=0;overflow=hidden;" vertex="1" parent="193"><mxGeometry x="569" width="54" height="40" as="geometry"><mxRectangle width="54" height="40" as="alternateBounds"/></mxGeometry></mxCell><mxCell id="205" style="shape=tableRow;horizontal=0;startSize=0;swimlaneHead=0;swimlaneBody=0;top=0;left=0;bottom=0;right=0;collapsible=0;dropTarget=0;fillColor=none;points=[[0,0.5],[1,0.5]];portConstraint=eastwest;" vertex="1" parent="15"><mxGeometry y="640" width="623" height="40" as="geometry"/></mxCell><mxCell id="206" value="&lt;font style=&quot;font-size: 18px;&quot;&gt;大三、大四&lt;/font&gt;" style="shape=partialRectangle;html=1;whiteSpace=wrap;connectable=0;fillColor=none;top=0;left=0;bottom=0;right=0;overflow=hidden;" vertex="1" parent="205"><mxGeometry width="94" height="40" as="geometry"><mxRectangle width="94" height="40" as="alternateBounds"/></mxGeometry></mxCell><mxCell id="207" value="T" style="shape=partialRectangle;html=1;whiteSpace=wrap;connectable=0;fillColor=none;top=0;left=0;bottom=0;right=0;overflow=hidden;" vertex="1" parent="205"><mxGeometry x="94" width="55" height="40" as="geometry"><mxRectangle width="55" height="40" as="alternateBounds"/></mxGeometry></mxCell><mxCell id="208" value="T" style="shape=partialRectangle;html=1;whiteSpace=wrap;connectable=0;fillColor=none;top=0;left=0;bottom=0;right=0;overflow=hidden;" vertex="1" parent="205"><mxGeometry x="149" width="54" height="40" as="geometry"><mxRectangle width="54" height="40" as="alternateBounds"/></mxGeometry></mxCell><mxCell id="209" value="T" style="shape=partialRectangle;html=1;whiteSpace=wrap;connectable=0;fillColor=none;top=0;left=0;bottom=0;right=0;overflow=hidden;" vertex="1" parent="205"><mxGeometry x="203" width="45" height="40" as="geometry"><mxRectangle width="45" height="40" as="alternateBounds"/></mxGeometry></mxCell><mxCell id="210" value="T" style="shape=partialRectangle;html=1;whiteSpace=wrap;connectable=0;fillColor=none;top=0;left=0;bottom=0;right=0;overflow=hidden;" vertex="1" parent="205"><mxGeometry x="248" width="53" height="40" as="geometry"><mxRectangle width="53" height="40" as="alternateBounds"/></mxGeometry></mxCell><mxCell id="211" style="shape=partialRectangle;html=1;whiteSpace=wrap;connectable=0;fillColor=none;top=0;left=0;bottom=0;right=0;overflow=hidden;" vertex="1" parent="205"><mxGeometry x="301" width="54" height="40" as="geometry"><mxRectangle width="54" height="40" as="alternateBounds"/></mxGeometry></mxCell><mxCell id="212" value="T" style="shape=partialRectangle;html=1;whiteSpace=wrap;connectable=0;fillColor=none;top=0;left=0;bottom=0;right=0;overflow=hidden;" vertex="1" parent="205"><mxGeometry x="355" width="53" height="40" as="geometry"><mxRectangle width="53" height="40" as="alternateBounds"/></mxGeometry></mxCell><mxCell id="213" style="shape=partialRectangle;html=1;whiteSpace=wrap;connectable=0;fillColor=none;top=0;left=0;bottom=0;right=0;overflow=hidden;" vertex="1" parent="205"><mxGeometry x="408" width="53" height="40" as="geometry"><mxRectangle width="53" height="40" as="alternateBounds"/></mxGeometry></mxCell><mxCell id="214" value="T" style="shape=partialRectangle;html=1;whiteSpace=wrap;connectable=0;fillColor=none;top=0;left=0;bottom=0;right=0;overflow=hidden;" vertex="1" parent="205"><mxGeometry x="461" width="54" height="40" as="geometry"><mxRectangle width="54" height="40" as="alternateBounds"/></mxGeometry></mxCell><mxCell id="215" value="T" style="shape=partialRectangle;html=1;whiteSpace=wrap;connectable=0;fillColor=none;top=0;left=0;bottom=0;right=0;overflow=hidden;" vertex="1" parent="205"><mxGeometry x="515" width="54" height="40" as="geometry"><mxRectangle width="54" height="40" as="alternateBounds"/></mxGeometry></mxCell><mxCell id="216" value="T" style="shape=partialRectangle;html=1;whiteSpace=wrap;connectable=0;fillColor=none;top=0;left=0;bottom=0;right=0;overflow=hidden;" vertex="1" parent="205"><mxGeometry x="569" width="54" height="40" as="geometry"><mxRectangle width="54" height="40" as="alternateBounds"/></mxGeometry></mxCell><mxCell id="217" value="" style="shape=partialRectangle;whiteSpace=wrap;html=1;bottom=1;right=1;left=1;top=0;fillColor=none;routingCenterX=-0.5;strokeColor=default;strokeWidth=2;fontSize=12;rotation=90;" vertex="1" parent="1"><mxGeometry x="130" y="1060" width="120" height="60" as="geometry"/></mxCell><mxCell id="218" value="&lt;font style=&quot;font-size: 15px;&quot;&gt;学生体测项目&lt;/font&gt;" style="text;html=1;align=center;verticalAlign=middle;resizable=0;points=[];autosize=1;strokeColor=none;fillColor=none;fontSize=12;" vertex="1" parent="1"><mxGeometry x="50" y="1080" width="110" height="30" as="geometry"/></mxCell><mxCell id="222" value="小学" style="text;html=1;align=center;verticalAlign=middle;resizable=0;points=[];autosize=1;strokeColor=none;fillColor=none;fontSize=15;" vertex="1" parent="1"><mxGeometry x="215" y="1010" width="50" height="30" as="geometry"/></mxCell><mxCell id="227" style="edgeStyle=none;html=1;exitX=0;exitY=1;exitDx=0;exitDy=0;fontSize=15;" edge="1" parent="1" source="223"><mxGeometry relative="1" as="geometry"><mxPoint x="265" y="985" as="targetPoint"/></mxGeometry></mxCell><mxCell id="223" value="" style="shape=partialRectangle;whiteSpace=wrap;html=1;bottom=1;right=1;left=1;top=0;fillColor=none;routingCenterX=-0.5;strokeColor=default;strokeWidth=2;fontSize=12;rotation=90;resizeWidth=0;noLabel=0;" vertex="1" parent="1"><mxGeometry x="250" y="1000" width="90" height="60" as="geometry"/></mxCell><mxCell id="225" value="初中、高中、大学" style="text;html=1;align=center;verticalAlign=middle;resizable=0;points=[];autosize=1;strokeColor=none;fillColor=none;fontSize=15;" vertex="1" parent="1"><mxGeometry x="210" y="1135" width="140" height="30" as="geometry"/></mxCell><mxCell id="258" value="" style="line;strokeWidth=2;html=1;strokeColor=default;fontSize=15;" vertex="1" parent="1"><mxGeometry x="340" y="1140" width="70" height="10" as="geometry"/></mxCell><mxCell id="272" value="小学一二年级" style="text;html=1;align=center;verticalAlign=middle;resizable=0;points=[];autosize=1;strokeColor=none;fillColor=none;fontSize=15;" vertex="1" parent="1"><mxGeometry x="310" y="970" width="110" height="30" as="geometry"/></mxCell><mxCell id="273" value="小学三四五六年级" style="text;html=1;align=center;verticalAlign=middle;resizable=0;points=[];autosize=1;strokeColor=none;fillColor=none;fontSize=15;" vertex="1" parent="1"><mxGeometry x="310" y="1060" width="140" height="30" as="geometry"/></mxCell><mxCell id="274" value="" style="shape=partialRectangle;whiteSpace=wrap;html=1;bottom=1;right=1;left=1;top=0;fillColor=none;routingCenterX=-0.5;strokeColor=default;strokeWidth=2;fontSize=15;rotation=90;" vertex="1" parent="1"><mxGeometry x="430" y="1050" width="80" height="60" as="geometry"/></mxCell><mxCell id="275" value="小学三四年级" style="text;html=1;align=center;verticalAlign=middle;resizable=0;points=[];autosize=1;strokeColor=none;fillColor=none;fontSize=15;" vertex="1" parent="1"><mxGeometry x="490" y="1025" width="110" height="30" as="geometry"/></mxCell><mxCell id="276" value="小学五六年级" style="text;html=1;align=center;verticalAlign=middle;resizable=0;points=[];autosize=1;strokeColor=none;fillColor=none;fontSize=15;" vertex="1" parent="1"><mxGeometry x="490" y="1100" width="110" height="30" as="geometry"/></mxCell><mxCell id="277" value="" style="line;strokeWidth=2;html=1;strokeColor=default;fontSize=15;" vertex="1" parent="1"><mxGeometry x="410" y="980" width="100" height="10" as="geometry"/></mxCell><mxCell id="278" value="" style="line;strokeWidth=2;html=1;strokeColor=default;fontSize=15;" vertex="1" parent="1"><mxGeometry x="590" y="1030" width="80" height="10" as="geometry"/></mxCell><mxCell id="279" value="" style="line;strokeWidth=2;html=1;strokeColor=default;fontSize=15;" vertex="1" parent="1"><mxGeometry x="590" y="1110" width="80" height="10" as="geometry"/></mxCell><mxCell id="280" value="体重指数、肺活量、50米跑、坐位体前屈、一分钟跳绳" style="text;html=1;align=center;verticalAlign=middle;resizable=0;points=[];autosize=1;strokeColor=none;fillColor=none;fontSize=15;" vertex="1" parent="1"><mxGeometry x="490" y="970" width="390" height="30" as="geometry"/></mxCell><mxCell id="281" value="体重指数、肺活量、50米跑、坐位体前屈、1分钟跳绳、1分钟仰卧起坐" style="text;html=1;align=center;verticalAlign=middle;resizable=0;points=[];autosize=1;strokeColor=none;fillColor=none;fontSize=15;" vertex="1" parent="1"><mxGeometry x="660" y="1020" width="490" height="30" as="geometry"/></mxCell><mxCell id="282" value="体重指数、肺活量、50米跑、坐位体前屈、1分钟跳绳、1分钟仰卧起坐、50米*8往返跑" style="text;html=1;align=center;verticalAlign=middle;resizable=0;points=[];autosize=1;strokeColor=none;fillColor=none;fontSize=15;" vertex="1" parent="1"><mxGeometry x="660" y="1100" width="600" height="30" as="geometry"/></mxCell><mxCell id="284" value="体重指数、肺活量、50米跑、坐位体前屈、立定跳远、引体向上（男）/一分钟仰卧起坐、1000米跑（男）/800米跑（女）" style="text;html=1;align=center;verticalAlign=middle;resizable=0;points=[];autosize=1;strokeColor=none;fillColor=none;fontSize=15;" vertex="1" parent="1"><mxGeometry x="400" y="1130" width="830" height="30" as="geometry"/></mxCell></root></mxGraphModel></diagram></mxfile>